<svg width="133" height="66" fill="none" xmlns="http://www.w3.org/2000/svg"><path d="M28.109 51.08c.141.09.213.252.213.488 0 .22-.064.375-.19.466-.121.085-.324.128-.607.128H25.85v2.886c0 .34-.076.598-.228.774-.152.18-.372.27-.66.27-.273 0-.486-.082-.637-.247-.152-.16-.228-.436-.228-.827v-3.171c0-.161.023-.298.069-.414.04-.12.1-.215.182-.285a.823.823 0 01.273-.158 1.2 1.2 0 01.342-.045h2.488c.292 0 .512.044.659.134zm3.58 3.884c0 .406-.076.696-.228.869-.152.172-.384.259-.698.259-.313 0-.543-.08-.69-.237-.147-.158-.22-.437-.22-.838v-3.171c0-.306.084-.533.25-.68.167-.148.387-.222.66-.222h1.35c.329 0 .632.044.91.131.278.088.52.211.725.369.204.158.364.356.477.593.114.238.171.503.171.793 0 .356-.104.665-.311.928-.208.263-.48.46-.82.59-.338.13-.72.196-1.145.196h-.432v.42zm.956-2.239c0-.185-.018-.332-.053-.44a.436.436 0 00-.186-.244.799.799 0 00-.289-.11 2.667 2.667 0 00-.428-.026v1.653c.14 0 .266-.012.375-.038a.916.916 0 00.3-.127c.09-.06.16-.147.208-.26.048-.11.073-.247.073-.408zm7.744-1.578c.146.14.22.37.22.691v.324c0 .14-.019.48-.054 1.022-.04.566-.07.914-.09 1.044a3.22 3.22 0 01-.229.797c-.101.22-.242.416-.424.586a1.681 1.681 0 01-.698.391 3.53 3.53 0 01-1.008.128 3.04 3.04 0 01-.873-.12 2.095 2.095 0 01-.637-.278 1.81 1.81 0 01-.364-.338c-.09-.11-.136-.206-.136-.286 0-.08.03-.155.091-.226a.352.352 0 01.258-.098c.076 0 .164.02.265.06.106.04.205.085.296.135.096.05.21.095.342.135.126.04.253.06.38.06.318 0 .542-.068.674-.203.131-.13.198-.318.198-.563l.007-.015v-.196c-.11.01-.223.015-.334.015-.804 0-1.396-.17-1.775-.51-.374-.341-.561-.855-.561-1.542v-.323c0-.266.08-.482.243-.647a.78.78 0 01.599-.255c.298 0 .523.055.675.165.156.11.235.334.235.67v.533c.005.16.03.289.076.384a.41.41 0 00.197.195.7.7 0 00.31.06c.127 0 .23-.015.312-.045a.31.31 0 00.174-.143.52.52 0 00.076-.195c.015-.065.023-.15.023-.256v-.541c0-.17.02-.313.06-.429a.52.52 0 01.198-.255.906.906 0 01.273-.113c.096-.02.21-.03.342-.03.292.001.512.071.659.212zm4.156 1.555c0-.245-.23-.368-.69-.368a3.82 3.82 0 00-.39.026 3.703 3.703 0 01-.361.027c-.364 0-.546-.216-.546-.647 0-.445.526-.669 1.577-.669.683 0 1.194.11 1.532.33.34.221.508.51.508.865 0 .496-.217.892-.652 1.187.294.156.5.317.619.485.119.168.178.41.178.726 0 .435-.173.79-.52 1.063-.347.274-.81.41-1.392.41-.727 0-1.25-.074-1.566-.222-.316-.148-.474-.372-.474-.673 0-.25.05-.422.152-.515.101-.092.243-.139.425-.139.09 0 .233.01.424.03.193.02.339.03.44.03.551 0 .827-.1.827-.3 0-.136-.054-.23-.16-.283-.106-.052-.306-.078-.599-.078s-.5-.038-.622-.113c-.12-.075-.182-.216-.182-.42 0-.311.208-.467.622-.467.268 0 .466-.012.595-.038.13-.025.203-.053.224-.086a.312.312 0 00.031-.16zm8.29-1.585c.147.11.22.333.22.669v3.186c0 .406-.073.697-.22.872-.147.17-.369.256-.667.256-.293 0-.508-.08-.645-.24-.136-.156-.205-.434-.205-.835l-.008-.849-.008-.767-1.532 2.247a1.87 1.87 0 01-.129.166l-.015.023c-.141.17-.367.255-.675.255-.294 0-.508-.08-.645-.24-.136-.155-.205-.434-.205-.834l-.023-3.171c0-.311.08-.539.243-.684.156-.145.367-.218.63-.218.303 0 .526.055.667.165.146.11.22.334.22.67v1.871l.94-1.383.622-.902.023-.038a.633.633 0 01.304-.293.983.983 0 01.44-.09c.294-.002.517.053.668.164zm7.069 3.847c0 .406-.073.696-.22.869-.146.172-.368.259-.667.259-.293 0-.508-.08-.645-.237-.137-.158-.204-.437-.204-.838l-.008-.849h-1.548v.797c0 .41-.07.701-.212.872-.142.17-.367.256-.675.256-.294 0-.509-.08-.645-.237-.137-.158-.205-.437-.205-.838l-.023-3.171c0-.31.08-.539.239-.684.16-.145.37-.218.633-.218.304 0 .527.055.671.166.145.11.217.333.217.669v1.262h1.54v-1.195c0-.21.039-.384.117-.522a.676.676 0 01.304-.293c.124-.058.271-.086.444-.086.293 0 .514.055.663.165.15.11.224.334.224.67v3.183zm4.877-2.607a.344.344 0 00-.132-.271.472.472 0 00-.315-.113c-.243 0-.443.136-.6.41a1.829 1.829 0 00-.234.928c0 .266.05.505.151.718a1.194 1.194 0 001.107.695c.187 0 .367-.037.538-.11.172-.072.312-.152.418-.24.106-.088.216-.168.33-.24a.578.578 0 01.3-.11.38.38 0 01.288.131c.08.088.12.18.12.274a.921.921 0 01-.094.369c-.064.14-.163.29-.3.447a2.792 2.792 0 01-.478.436 2.413 2.413 0 01-.679.33c-.27.088-.555.132-.853.132-.394 0-.76-.059-1.096-.177a2.625 2.625 0 01-.876-.503 2.256 2.256 0 01-.584-.823 2.805 2.805 0 01-.213-1.112c0-.812.245-1.453.736-1.924.49-.47 1.133-.706 1.926-.706.405 0 .779.067 1.123.202.344.136.617.324.82.564.202.24.303.503.303.789 0 .33-.111.63-.334.898a1.07 1.07 0 01-.865.402.945.945 0 01-.546-.165.537.537 0 01-.243-.474c0-.095.047-.228.14-.398.095-.169.142-.289.142-.36zm7.221 1.263c.258.029.493.158.706.386.213.228.319.52.319.876 0 .345-.026.602-.076.77-.05.168-.136.283-.258.346-.121.063-.306.094-.554.094a1.24 1.24 0 01-.489-.083.572.572 0 01-.285-.244.848.848 0 01-.09-.417c0-.22-.01-.405-.027-.553a2.002 2.002 0 00-.069-.353.403.403 0 00-.288-.286 1.016 1.016 0 00-.216-.018h-.402v.834c0 .4-.079.687-.235.86-.157.173-.387.26-.69.26-.294 0-.51-.082-.65-.245-.138-.163-.207-.437-.207-.823V51.89c0-.315.059-.552.177-.71.12-.158.313-.237.58-.237.157 0 .287.01.391.03.104.02.205.056.304.109a.486.486 0 01.22.248c.048.113.072.257.072.432 0 .155-.002.329-.004.522-.003.193-.004.329-.004.41 0 .065.017.12.05.165a.342.342 0 00.151.11.676.676 0 00.255.04c.217 0 .362-.084.436-.255.073-.17.11-.518.11-1.044 0-.261.07-.454.213-.579.14-.125.369-.188.682-.188.339 0 .567.065.683.196.116.13.174.363.174.7 0 .55-.097.977-.292 1.28-.195.304-.424.47-.687.5zm6.705 2.22a2.99 2.99 0 01-1.346.297 2.96 2.96 0 01-1.343-.297 2.283 2.283 0 01-.952-.89c-.238-.396-.357-.863-.357-1.399 0-.812.247-1.457.74-1.935s1.131-.718 1.915-.718 1.423.24 1.919.718c.495.478.743 1.123.743 1.935 0 .536-.12 1.002-.36 1.398a2.29 2.29 0 01-.96.89zm-1.343-.8c.172 0 .32-.075.444-.226a1.34 1.34 0 00.265-.556c.054-.22.08-.455.08-.706 0-.256-.028-.497-.083-.726a1.536 1.536 0 00-.27-.582c-.124-.16-.27-.24-.436-.24-.162 0-.303.08-.424.24-.121.16-.213.355-.273.586-.061.23-.091.471-.091.721s.029.486.087.706c.058.221.15.406.273.557.124.15.267.226.428.226zm7.486-2c.269 0 .457.044.566.129.108.085.163.23.163.435 0 .17-.065.292-.194.364-.129.073-.33.11-.603.11h-1.229v.796l1.646.008c.284 0 .487.042.61.125.125.082.187.229.187.44 0 .24-.072.408-.216.503-.145.095-.364.143-.656.143h-2.458c-.298 0-.516-.08-.656-.237-.139-.158-.208-.437-.208-.838v-3.171c0-.602.288-.902.865-.902h2.457c.294 0 .512.045.656.135.144.09.216.253.216.488 0 .22-.061.375-.185.462-.124.088-.328.132-.61.132h-1.654v.879h1.304zm10.08.233c.208.266.312.577.312.932 0 .29-.058.554-.174.79-.111.24-.27.438-.478.593-.203.16-.443.282-.72.368-.28.09-.583.135-.911.135H91.6c-.045 0-.09-.002-.136-.008h-.023a.872.872 0 01-.493-.218c-.167-.144-.25-.37-.25-.676v-3.17c0-.401.073-.682.22-.843.136-.145.343-.223.622-.233h2.548c.293 0 .51.045.652.135.146.09.22.253.22.489 0 .22-.064.375-.19.466-.12.085-.323.128-.606.128h-1.631v.33h.432c.425 0 .806.066 1.145.196.34.13.612.326.82.586zm-1.493 1.474a1.42 1.42 0 00.053-.436c0-.16-.023-.298-.068-.413a.592.592 0 00-.213-.256.921.921 0 00-.296-.128 1.735 1.735 0 00-.379-.038v1.653c.183 0 .327-.01.433-.03.1-.015.194-.05.28-.105a.433.433 0 00.19-.247zm8.381-3.63c.146.11.22.333.22.669v3.186c0 .406-.074.697-.22.872-.147.17-.369.256-.667.256-.294 0-.508-.08-.645-.24-.136-.156-.205-.434-.205-.835l-.008-.849-.008-.767-1.532 2.247a1.87 1.87 0 01-.129.166l-.015.023c-.141.17-.367.255-.675.255-.294 0-.508-.08-.645-.24-.137-.155-.205-.434-.205-.834l-.023-3.171c0-.311.08-.539.243-.684.156-.145.367-.218.63-.218.303 0 .526.055.667.165.146.11.22.334.22.67v1.871l.94-1.383.622-.902.023-.038a.636.636 0 01.304-.293.982.982 0 01.439-.09c.294-.002.517.053.669.164zm5.172 1.24a.345.345 0 00-.132-.271.472.472 0 00-.315-.113c-.243 0-.443.136-.599.41a1.83 1.83 0 00-.235.928c0 .266.05.505.151.718a1.194 1.194 0 001.107.695c.187 0 .367-.037.539-.11.171-.072.311-.152.417-.24.106-.088.216-.168.33-.24a.578.578 0 01.3-.11c.111 0 .207.044.288.131.081.088.121.18.121.274a.928.928 0 01-.095.369c-.063.14-.163.29-.3.447a2.76 2.76 0 01-.478.436 2.407 2.407 0 01-.678.33 2.747 2.747 0 01-.854.132c-.394 0-.759-.059-1.096-.177a2.63 2.63 0 01-.876-.503 2.251 2.251 0 01-.584-.823 2.809 2.809 0 01-.213-1.112c0-.812.245-1.453.736-1.924.49-.47 1.133-.706 1.927-.706.404 0 .778.067 1.122.202.344.136.617.324.82.564.202.24.303.503.303.789 0 .33-.111.63-.333.898a1.073 1.073 0 01-.865.402.948.948 0 01-.547-.165.537.537 0 01-.242-.474c0-.095.046-.228.14-.398.095-.169.141-.289.141-.36zm6.941 2.607c0 .286-.036.512-.106.68a.665.665 0 01-.292.35 1.056 1.056 0 01-.49.098c-.298 0-.514-.08-.648-.237-.134-.158-.204-.437-.209-.838l-.015-2.773h-.645c-.318 0-.557-.05-.717-.15-.159-.1-.239-.279-.239-.534 0-.155.032-.278.095-.369a.51.51 0 01.285-.191c.127-.037.296-.057.508-.057h3.247c.283 0 .487.05.614.15.126.1.189.274.189.519a.612.612 0 01-.11.387.562.562 0 01-.292.191 1.737 1.737 0 01-.471.053h-.705v2.721h.001zm5.013 0c0 .406-.075.696-.228.869-.152.172-.384.259-.697.259-.314 0-.544-.08-.691-.237-.147-.158-.219-.437-.219-.838v-3.171c0-.306.083-.533.25-.68.167-.148.387-.222.66-.222h1.35c.328 0 .632.044.91.131.278.088.519.211.724.369.205.158.364.356.478.593.114.238.171.503.171.793 0 .356-.104.665-.312.928a1.87 1.87 0 01-.819.59c-.339.13-.721.196-1.145.196h-.433v.42h.001zm.956-2.239a1.44 1.44 0 00-.054-.44.436.436 0 00-.185-.244.803.803 0 00-.289-.11 2.657 2.657 0 00-.429-.026v1.653c.142 0 .267-.012.376-.038a.92.92 0 00.3-.127.565.565 0 00.208-.26c.049-.11.073-.247.073-.408zm7.304 3.115a2.99 2.99 0 01-1.346.297c-.498 0-.946-.099-1.343-.297a2.285 2.285 0 01-.952-.89c-.238-.396-.357-.863-.357-1.399 0-.812.247-1.457.74-1.935s1.131-.718 1.915-.718 1.423.24 1.919.718.743 1.123.743 1.935c0 .536-.121 1.002-.361 1.398a2.284 2.284 0 01-.958.89zm-1.343-.8c.172 0 .32-.075.444-.226a1.34 1.34 0 00.265-.556c.054-.22.08-.455.08-.706 0-.256-.028-.497-.083-.726a1.544 1.544 0 00-.27-.582c-.124-.16-.269-.24-.436-.24-.162 0-.303.08-.424.24-.121.16-.213.355-.273.586a2.81 2.81 0 00-.091.721c0 .25.029.486.087.706.058.221.149.406.273.557.124.15.267.226.428.226zm-80.124-7.834h-4.67V30.423h4.67v16.783zm5.999 0h-2.165V30.423h3.035L62.898 41.95V30.423h2.153v16.783h-3.035L51.736 35.69v11.515zm33.275-8.03v.221a13.759 13.759 0 01-.206 2.028c-.122.7-.292 1.399-.512 2.098-.22.7-.482 1.391-.787 2.075a17.532 17.532 0 01-1.03 1.964 16.61 16.61 0 01-1.229 1.76c-.44.547-.901 1.03-1.388 1.45l-1.752-1.002c.274-.458.523-.957.746-1.497.224-.54.425-1.106.606-1.696.18-.59.335-1.196.465-1.818a27.891 27.891 0 00.518-3.666c.043-.594.064-1.16.064-1.696 0-.42-.002-.895-.005-1.427a16.553 16.553 0 00-.095-1.626 11.561 11.561 0 00-.288-1.614 4.797 4.797 0 00-.594-1.405 3.062 3.062 0 00-1.012-.99c-.411-.249-.923-.373-1.535-.373-.541 0-1.006.091-1.394.274a3.01 3.01 0 00-.988.734 3.65 3.65 0 00-.647 1.066c-.16.404-.286.83-.376 1.276a9.83 9.83 0 00-.177 1.352c-.027.455-.04.884-.04 1.288v3.252h5.069v1.923h-5.07v4.079h-4.67v-8.531c0-1.22.196-2.354.588-3.403a8.174 8.174 0 011.664-2.733 7.653 7.653 0 012.588-1.818c1.008-.44 2.132-.659 3.37-.659a7.618 7.618 0 014.364 1.335 7.953 7.953 0 011.617 1.48 8.7 8.7 0 011.188 1.871c.318.676.558 1.391.723 2.144.167.753.241 1.514.225 2.284zm6.176-4.487l-1.318 12.517h-2.882l2.882-16.783h4.27l3.964 12.808 4.011-12.808h4.27l2.4 16.783h-4.752l-1.4-12.19-3.305 12.19h-4.27l-3.87-12.517zm38.133 4.102c0 1.352-.234 2.57-.705 3.654a7.932 7.932 0 01-1.952 2.757c-.831.753-1.816 1.332-2.953 1.736-1.137.404-2.368.606-3.693.606-1.326 0-2.557-.202-3.694-.606-1.137-.404-2.121-.983-2.953-1.736a7.945 7.945 0 01-1.952-2.757c-.47-1.084-.705-2.301-.705-3.654 0-1.375.233-2.605.699-3.689a7.85 7.85 0 011.941-2.75c.828-.75 1.81-1.325 2.946-1.726 1.138-.4 2.376-.6 3.718-.6 1.341 0 2.58.2 3.717.6 1.137.401 2.119.976 2.946 1.726a7.85 7.85 0 011.941 2.75c.466 1.084.699 2.314.699 3.69zm-4.752 0c0-.512-.023-1.037-.07-1.573a10.189 10.189 0 00-.259-1.562 7.156 7.156 0 00-.512-1.421 4.15 4.15 0 00-.829-1.16 3.68 3.68 0 00-1.217-.781c-.475-.19-1.03-.286-1.664-.286-.643 0-1.204.095-1.682.286-.479.19-.887.448-1.223.775a3.971 3.971 0 00-.824 1.153 7.156 7.156 0 00-.5 1.416 10.417 10.417 0 00-.253 1.562c-.047.54-.071 1.07-.071 1.591 0 .513.024 1.038.071 1.573.047.537.133 1.055.258 1.556.126.502.297.974.512 1.416.216.443.492.83.83 1.16.337.33.743.593 1.217.787.474.194 1.029.291 1.664.291.619 0 1.16-.099 1.623-.297a3.787 3.787 0 001.2-.804 4.52 4.52 0 00.841-1.177c.223-.447.4-.92.529-1.421.129-.502.221-1.016.276-1.545.056-.528.083-1.042.083-1.539zm-86.7-2.325a7.982 7.982 0 00-2.346-3.7 8.806 8.806 0 00-1.823-1.265 9.657 9.657 0 00-4.452-1.078h-2.161l.062.038a8.42 8.42 0 011.92 1.68c.443.09.85.23 1.22.415a5.082 5.082 0 011.793 1.48c.47.622.817 1.343 1.041 2.162.223.82.335 1.684.335 2.593a9.61 9.61 0 01-.34 2.576 6.38 6.38 0 01-1.054 2.162 5.162 5.162 0 01-1.8 1.492c-.725.369-1.585.553-2.581.553h-1.236v-3.352a26.938 26.938 0 00-.03-3.203c-.135-1.937-.403-2.604-.515-2.888-.327-.832-.795-1.474-1.429-1.963-.602-.464-1.338-.69-2.248-.69-.154 0-.303.008-.447.022v13.706h7.47c.8 0 1.577-.095 2.334-.286a9.55 9.55 0 002.129-.81 8.739 8.739 0 001.818-1.276 8.35 8.35 0 001.417-1.683 8.09 8.09 0 001.253-4.359c0-.816-.11-1.592-.33-2.326z" fill="#fff"/><path d="M20.27 51.405c-1.232-.936-3.055-1.677-5.47-2.222a10.55 10.55 0 01-3.874-1.741c-1.196-.854-2.164-1.985-2.906-3.394-.741-1.41-1.112-3.051-1.112-4.923 0-2.108.317-3.72.95-4.833.634-1.114 1.573-1.67 2.816-1.67.694 0 1.303.177 1.83.533.525.356.926.853 1.2 1.492.275.64.413 1.363.413 2.168v2.204c0 1.754.33 3.306.989 4.656.66 1.35 1.606 2.405 2.84 3.163.881.542 1.87.89 2.966 1.044v-2.68a4.02 4.02 0 01-1.396-.71c-.753-.591-1.316-1.368-1.686-2.328-.371-.96-.556-2.008-.556-3.145 0-1.185.191-2.262.574-3.234.382-.971.944-1.742 1.686-2.31.74-.569 1.637-.853 2.69-.853 1.1 0 2.026.29 2.78.87.988.761 1.417 1.665 1.703 2.328.632 1.46.634 2.817.637 5.013.001.586-.016 1.073-.033 1.41v2.474h.37c.458 0 .88-.045 1.268-.134.202-.302.387-.623.554-.962.67-1.362 1.006-2.896 1.006-4.602 0-1.73-.335-3.276-1.007-4.638a8.38 8.38 0 00-1.005-1.578l-.095-.113a7.543 7.543 0 00-1.723-1.508l-.056-.034-.009-.006c-1.195-.743-2.545-1.115-4.052-1.115-1.534 0-2.866.314-3.992.941-1.126.629-1.99 1.582-2.588 2.862h-.144c-.383-1.28-1.046-2.233-1.99-2.861-.945-.628-2.087-.942-3.426-.942-1.387 0-2.588.36-3.605 1.084-1.016.723-1.793 1.771-2.331 3.145-.538 1.375-.807 2.998-.807 4.87 0 1.634.246 3.133.736 4.495.491 1.363 1.209 2.518 2.155 3.466a8.054 8.054 0 003.359 2.025v.143H6.342c-.688-.043-1.27.498-1.282 1.152-.011.669.58 1.236 1.282 1.193h5.701c1.361 0 2.562.154 3.601.462 1.04.308 1.852.74 2.437 1.298.354.336.61.71.767 1.121.13.34.17.643.183.852-.075 1.203.92 2.06 1.763 1.966.747-.084 1.46-.927 1.358-1.966-.024-1.683-.652-2.992-1.883-3.928zm29.48-26.313c.412-.1.718-.22 1.235-.425.42-.165.761-.317.995-.425l1-.911-.73.13v-.024H30.82c-.672-.039-1.166.52-1.109 1.024.05.445.528.85 1.11.801h17.638a6.173 6.173 0 001.292-.17zm32.622-1.654c.01.604.032 1.219-.003 1.825h21.538c.541.032.997-.404.991-.923-.005-.512-.458-.934-.991-.902H82.372zM53.17 19.882c-.037-.418-.056-.84-.056-1.268 0-7.906 6.491-14.34 14.471-14.34s14.472 6.433 14.472 14.34c0 .677-.049 1.342-.141 1.994.225.192.452.379.68.562.31.097.62.213.927.346a16.09 16.09 0 00.264-2.902c0-4.288-1.685-8.319-4.745-11.35-3.06-3.033-7.128-4.702-11.456-4.702-4.328 0-8.396 1.67-11.456 4.701-3.06 3.032-4.745 7.063-4.745 11.351 0 1 .093 1.985.272 2.946.552-.5 1.056-1.06 1.513-1.678z" fill="#fff"/><path fill-rule="evenodd" clip-rule="evenodd" d="M62.337 20.733c.177-1.288-2.085-2.554.124-1.921.138.038.761 1.082 1.07.473.061-.115-.694-.716-.631-1.174.084-.67-1.962-.473-1.862-1.585.07-.695-1.007.022-1.3.388-.938 1.174-.23 1.387-2.277 2.713-2.001 1.297-1.27-.457-3.663 2.738-1.092 1.463-1.946 2.05-3.823 2.393-.654.122-1.316.298-1.962.48 2.862-1.013 5.085-2.736 6.686-5.153 2.446-1.997 4.293-3.735 5.539-5.222.777-.678 1.377-.678 1.784 0 .34.648.816.877 1.424.67.777.054 1.63.9 2.562 2.54 2.569-2.417 4.331-4.255 5.301-5.52.592-.953 1.4-.709 2.43.74 2.532 3.757 5.271 6.791 8.21 9.1 1.539.428 3.046 1.373 4.524 2.844H79.21c-1.261-1.798-2.216-2.744-2.854-2.827-2.97-.313-5.085.784-6.332 3.293.316-2.37 2.2-4.239 4.593-4.551-.923-3.064-4.777.45-2.4-1.967.353-.358 1.23-.25 1.423-.914.145-.496.661-.969-.185-1.274-.27-.09-1.461-.876-.707-1.34.838-.519.261-1.594-.485-2.074-.754-.473-1.354 2.05-2.677 2.569-.846.336-3.408 2.706-3.847 3.492-.362.64-3.84 3.926-4.462 4.314-.054.038-2.177 1.624-2.193 1.647.293-1.616 1.223-2.584 2.577-3.338.637-.36.583-.84.676-1.534z" fill="#fff"/></svg>