<svg width="41" height="41" fill="none" xmlns="http://www.w3.org/2000/svg"><g clip-path="url(#clip0_17_994)"><path d="M8.996 21.669l17.8 17.8c.413.412.962.639 1.548.639.586 0 1.136-.227 1.547-.64l1.311-1.31a2.191 2.191 0 000-3.094L16.255 20.116 31.219 5.152c.412-.412.639-.961.639-1.547s-.227-1.135-.64-1.548l-1.31-1.31a2.173 2.173 0 00-1.547-.64c-.586 0-1.136.228-1.548.64L8.996 18.563c-.412.414-.64.966-.638 1.552a2.18 2.18 0 00.638 1.554z" fill="#fff"/></g><defs><clipPath id="clip0_17_994"><path fill="#fff" transform="rotate(180 20.054 20.054)" d="M0 0h40v40H0z"/></clipPath></defs></svg>