<svg width="41" height="40" fill="none" xmlns="http://www.w3.org/2000/svg"><g clip-path="url(#clip0_17_998)"><path d="M31.22 18.44L13.42.638A2.172 2.172 0 0011.871 0c-.586 0-1.135.227-1.547.639l-1.311 1.31a2.191 2.191 0 000 3.095l14.948 14.948L8.997 34.956a2.174 2.174 0 00-.639 1.547c0 .586.228 1.135.64 1.548l1.31 1.31c.412.412.962.639 1.548.639.586 0 1.135-.227 1.547-.639L31.22 21.545c.413-.414.64-.966.638-1.552a2.175 2.175 0 00-.638-1.554z" fill="#fff"/></g><defs><clipPath id="clip0_17_998"><path fill="#fff" transform="translate(.108)" d="M0 0h40v40H0z"/></clipPath></defs></svg>