<svg width="20" height="20" fill="none" xmlns="http://www.w3.org/2000/svg"><g clip-path="url(#clip0_13_60)"><path d="M7.461 18.205c-.864 0-1.755-.07-2.65-.21-1.578-.248-3.174-1.073-3.626-1.32L0 16.027l1.283-.422c1.402-.461 2.256-.747 3.312-1.195-1.058-.512-1.873-1.433-2.265-2.624l-.299-.906.245.037a4.456 4.456 0 01-.557-.687c-.505-.767-.773-1.705-.716-2.509l.056-.79.474.183c-.2-.377-.344-.78-.43-1.202a4.575 4.575 0 01.488-3.08l.412-.758.552.663C4.3 4.833 6.51 6.076 9.132 6.44a3.934 3.934 0 01.239-2.09c.309-.744.86-1.374 1.59-1.824a4.778 4.778 0 012.773-.681 4.43 4.43 0 012.723 1.123c.365-.095.633-.196.996-.333.219-.082.467-.175.777-.282l1.142-.394-.745 2.128.153-.01L20 4.022l-.721.986a1.954 1.954 0 00-.067.094c-.058.088-.13.197-1.12 1.518a1.864 1.864 0 00-.348 1.214c.087 1.718-.123 3.272-.627 4.619a8.173 8.173 0 01-2.194 3.25c-1.212 1.091-2.757 1.838-4.593 2.22-.9.188-1.868.282-2.869.282z" fill="#E5E5E5"/></g><defs><clipPath id="clip0_13_60"><path fill="#fff" d="M0 0h20v20H0z"/></clipPath></defs></svg>